<svg width="396" height="77" viewBox="0 0 396 77" fill="none" xmlns="http://www.w3.org/2000/svg">
<path d="M21.7014 2.34078L1.43169 22.6105C0.904224 23.1379 0 22.7612 0 22.0076V5.58091C0 3.01894 2.10985 0.909088 4.67182 0.909088H21.0986C21.8521 0.909088 22.2288 1.81331 21.7014 2.34078Z" fill="#F44767"/>
<path d="M71.0569 3.84781C71.0569 4.60133 70.7555 5.35485 70.228 5.88232C70.1527 5.95767 70.1527 5.95767 70.0773 6.03302L51.9929 24.1175L31.1957 44.9146L24.5647 51.5456L23.1331 52.9019L8.06266 68.0477L1.35634 74.754C0.527464 73.8498 0 72.7195 0 71.3632V43.6337C0 42.5034 0.452112 41.4484 1.28098 40.6196L39.7105 2.19007C40.5394 1.3612 41.5943 0.909088 42.7246 0.909088H68.1182C69.7006 0.909088 71.0569 2.26542 71.0569 3.84781Z" fill="#2C4E9B"/>
<path d="M72.79 54.635C72.79 55.0118 72.6393 55.3886 72.4132 55.69C72.3379 55.7653 72.2625 55.8407 72.1872 55.916L54.5548 73.6237C52.9724 75.2061 50.7872 76.1104 48.5267 76.1104H4.67181C3.39083 76.1104 2.18519 75.5829 1.35632 74.754L7.9873 68.123L23.133 52.9019L24.4894 51.5456C25.3182 52.3745 26.5239 52.9019 27.8049 52.9019H71.0569C72.0365 52.9019 72.79 53.7308 72.79 54.635Z" fill="#27B7E4"/>
<path d="M87.79 57.6231V51.5231L107.31 27.9364H87.79V19.8031H119.51V25.9031L99.9899 49.4898H119.916V57.6231H87.79Z" fill="#2C4E9B"/>
<path d="M161.802 38.5097C161.802 41.3564 161.396 43.7964 160.176 46.2364C158.956 48.6764 157.736 50.7097 155.702 52.3364C154.076 53.9631 151.636 55.5897 149.196 56.4031C146.756 57.2164 143.909 58.0298 141.063 58.0298C138.216 58.0298 135.776 57.6231 132.929 56.4031C130.489 55.5897 128.456 53.9631 126.423 52.3364C124.796 50.7097 123.169 48.6764 121.949 46.2364C120.73 43.7964 120.323 41.3564 120.323 38.5097C120.323 35.663 120.73 33.223 121.949 30.783C123.169 28.343 124.389 26.3097 126.423 24.683C128.049 23.0564 130.489 21.4297 132.929 20.6164C135.369 19.803 138.216 18.9897 141.063 18.9897C143.909 18.9897 146.349 19.3964 149.196 20.6164C151.636 21.4297 153.669 23.0564 155.702 24.683C157.329 26.3097 158.956 28.343 160.176 30.783C161.396 33.223 161.802 35.663 161.802 38.5097ZM152.042 38.5097C152.042 36.8831 151.636 35.663 151.229 34.0364C150.822 32.8164 150.009 31.5964 148.789 30.3764C147.569 29.1564 146.756 28.7497 145.536 27.9364C144.316 27.5297 142.689 27.123 141.469 27.123C139.843 27.123 138.623 27.5297 137.403 27.9364C136.183 28.343 134.963 29.1564 134.149 30.3764C133.336 31.1897 132.523 32.4097 131.709 34.0364C131.303 35.2564 130.896 36.8831 130.896 38.5097C130.896 40.1364 131.303 41.3564 131.709 42.9831C132.116 44.2031 132.929 45.4231 134.149 46.6431C134.963 47.4564 136.183 48.2697 137.403 49.0831C138.623 49.4897 140.249 49.8964 141.469 49.8964C143.096 49.8964 144.316 49.4897 145.536 49.0831C146.756 48.6764 147.976 47.8631 148.789 46.6431C149.602 45.4231 150.416 44.6097 151.229 42.9831C151.636 41.3564 152.042 40.1364 152.042 38.5097Z" fill="#2C4E9B"/>
<path d="M166.682 57.623V19.3963H196.775V27.5296H176.035V34.443H189.862V42.1697H176.035V57.2163H166.682V57.623Z" fill="#2C4E9B"/>
<path d="M199.622 27.5296V19.3963H233.781V27.5296H221.175V57.2163H211.822V27.5296H199.622Z" fill="#2C4E9B"/>
<path d="M254.521 57.6231H244.761L236.221 19.8031H245.981L250.455 43.3898L256.961 19.8031H265.501L272.008 43.3898L276.481 19.8031H285.834L277.294 57.6231H267.534L261.028 33.2231L254.521 57.6231Z" fill="#2C4E9B"/>
<path d="M283.394 57.6231L298.847 19.8031H309.42L324.874 57.6231H314.707L311.047 48.2698H296.407L292.747 57.6231H283.394ZM299.254 40.9498H308.607L304.134 28.7497L299.254 40.9498Z" fill="#2C4E9B"/>
<path d="M327.72 57.623V19.3963H347.24C349.273 19.3963 350.9 19.8029 352.526 20.2096C354.153 20.6163 355.78 21.8363 356.593 22.6496C357.813 23.8696 358.626 25.0896 359.44 26.3096C360.253 27.9363 360.253 29.563 360.253 31.1896C360.253 33.6296 359.44 35.663 358.22 37.6963C357 39.7296 355.373 40.9497 352.933 42.1697L361.066 57.2163H350.493L343.173 43.3897H336.26V57.2163H327.72V57.623ZM346.426 27.5296H337.073V36.0696H346.426C348.053 36.0696 348.866 35.663 350.086 34.8496C350.9 34.0363 351.306 33.223 351.306 31.5963C351.306 29.9696 350.9 29.1563 350.086 28.343C348.866 27.9363 347.646 27.5296 346.426 27.5296Z" fill="#2C4E9B"/>
<path d="M365.133 57.623V19.3963H395.226V27.5296H374.486V34.443H387.906V42.1697H374.486V49.4897H395.226V57.623H365.133Z" fill="#2C4E9B"/>
</svg>
